<svg width="1171" height="143" viewBox="0 0 1171 143" fill="none" xmlns="http://www.w3.org/2000/svg">
<path d="M53.5625 136.188C51.2708 136.188 49.5 135.542 48.25 134.25C47.4583 133 46.6875 130.438 45.9375 126.562C45.2292 122.646 44.7917 118.562 44.625 114.312L44.4375 106.875C44.4375 105.542 44.3542 103.667 44.1875 101.25C44.0208 98.5417 43.9375 96.3542 43.9375 94.6875C43.6042 89.4375 43.3542 84.4167 43.1875 79.625C42.9375 76.125 42.7708 72.3542 42.6875 68.3125L42.125 52.125C42.125 50.4167 42.0625 48.4375 41.9375 46.1875C41.7708 42.1875 41.6875 38.0833 41.6875 33.875C41.6875 28.5417 41.7917 24.9583 42 23.125C42 23 41.9583 22.9375 41.875 22.9375C40.9583 23.1042 38.1875 23.7917 33.5625 25C16.7292 29.25 7.64583 31.375 6.3125 31.375C4.5625 31.1667 3.0625 29.8542 1.8125 27.4375C0.604167 25.0208 0 22.625 0 20.25C0 18.75 0.25 17.4167 0.75 16.25C1.20833 15.3333 1.75 14.7083 2.375 14.375C4.08333 13.6667 9.83333 12.2292 19.625 10.0625C22.5833 9.22917 27.3958 8.25 34.0625 7.125L43.4375 5.4375C44.0625 5.27083 44.5208 5.10417 44.8125 4.9375C45.5208 4.52083 46.4167 4.1875 47.5 3.9375C47.7917 3.85417 48.7917 3.8125 50.5 3.8125C52.6667 3.77083 54.1875 3.6875 55.0625 3.5625C58.6875 2.85417 63.25 2.22917 68.75 1.6875C72.8333 1.27083 76.2083 1 78.875 0.875L81.6875 0.6875L85.25 0.625C91.7083 0.625 95.4792 0.770833 96.5625 1.0625C98.5208 1.52083 99.5 3.47917 99.5 6.9375C99.5 7.8125 99.4375 8.625 99.3125 9.375C98.8125 12 98.0208 14.0208 96.9375 15.4375C95.8958 16.8542 94.625 17.9167 93.125 18.625L76.1875 18.3125C71.2292 18.3125 67.5417 18.4792 65.125 18.8125L63.125 19L61.75 19.1875C61.75 20.5625 61.7292 21.5 61.6875 22C61.6875 22.5 61.6458 24.3958 61.5625 27.6875L61.5 34.8125L61.375 38.125C61.3333 39.7917 61.2917 40.625 61.25 40.625L61 48.4375C60.9167 50.2708 60.875 56.0625 60.875 65.8125C60.875 80.6042 61 89.1042 61.25 91.3125C61.4583 93.1042 61.5833 94.5208 61.625 95.5625C61.9583 102.229 63.6042 111.625 66.5625 123.75C66.9792 125.542 67.1875 126.667 67.1875 127.125C67.1875 129.333 65.6875 131.396 62.6875 133.312C59.6875 135.229 56.6458 136.188 53.5625 136.188ZM158.375 142.938C155.542 142.938 153.708 142.104 152.875 140.438C152.375 139.396 151.917 137.958 151.5 136.125C151.083 134.292 150.812 132.604 150.688 131.062L150.625 130.5C150.417 129.083 150.312 125.417 150.312 119.5C150.354 106.167 150.438 95.5417 150.562 87.625L150.688 78.875C149.646 78.9167 148.979 78.9583 148.688 79C148.438 79.0417 147.938 79.1042 147.188 79.1875C144.646 79.3958 142.146 79.75 139.688 80.25L138.188 80.5C137.271 80.625 134.833 81.0833 130.875 81.875C129.542 82.125 127.5 82.6042 124.75 83.3125L124.688 84.1875C124.688 87.6458 124.896 92.375 125.312 98.375C125.312 99.625 125.396 100.854 125.562 102.062C125.854 106.729 126.188 111.229 126.562 115.562C127.104 120.812 127.5 125.729 127.75 130.312C127.75 131.646 127.188 132.875 126.062 134C124.979 135.083 123.667 135.958 122.125 136.625C120.583 137.25 119.146 137.562 117.812 137.562C116.396 137.562 115.438 137.271 114.938 136.688C114.812 136.562 114.688 136.417 114.562 136.25C114.479 136.083 114.375 135.604 114.25 134.812C114.125 133.979 113.917 132.167 113.625 129.375L113.375 126.625C113.167 124.958 112.854 121.125 112.438 115.125C112.146 111.583 111.938 107.958 111.812 104.25C111.729 101.5 111.5 96.5208 111.125 89.3125L111.062 88.3125C111.062 87.7708 111.042 87.5 111 87.5C107.333 88.4167 104.271 89.2917 101.812 90.125C99.5625 90.9583 98.0625 91.375 97.3125 91.375C96.1042 91.375 94.6875 90.7708 93.0625 89.5625C91.4375 88.3542 90.0208 86.7708 88.8125 84.8125C87.6042 82.8125 87 80.6458 87 78.3125C87 76.5625 87.4792 75.375 88.4375 74.75C89.1042 74.3333 90.6875 73.7292 93.1875 72.9375C98.6042 71.2708 104.354 69.75 110.438 68.375L109.875 34.625C109.792 31.7083 109.75 26.9167 109.75 20.25C109.75 13.4583 109.792 9.375 109.875 8C110.042 5.625 111.979 4.4375 115.688 4.4375C117.854 4.4375 119.833 4.875 121.625 5.75C123.458 6.625 124.583 7.70833 125 9C125.042 9.54167 125.062 11.1667 125.062 13.875C125.062 20.4583 124.958 26.9583 124.75 33.375C124.542 40.0833 124.438 47.3542 124.438 55.1875C124.438 57.9792 124.438 60.375 124.438 62.375C124.479 64.3333 124.521 65.3125 124.562 65.3125C124.771 65.3125 125.312 65.2083 126.188 65L137.938 62.8125L151.562 60.625L152.688 45.0625C152.771 44.3958 152.854 43.2708 152.938 41.6875L153.5 33.3125C153.625 30.9375 153.958 26.7083 154.5 20.625C154.667 17.4583 155.312 13.3125 156.438 8.1875C156.854 6.3125 157.125 5.20833 157.25 4.875C157.875 3.41667 159.583 2.6875 162.375 2.6875C165.917 2.97917 168.938 4.02083 171.438 5.8125C173.938 7.60417 175.292 9.5625 175.5 11.6875C175.5 12.1042 175.229 13.7083 174.688 16.5L174.125 19.6875C173.333 23.6875 172.562 27.2708 171.812 30.4375C171.062 33.5625 170.333 36.9167 169.625 40.5C168.958 44.0417 168.333 48.4167 167.75 53.625C167.667 54.9167 167.562 56.0833 167.438 57.125C167.312 57.875 167.208 58.75 167.125 59.75V59.875L168.875 60.125C169.75 60.2083 170.396 60.3333 170.812 60.5C172.104 60.9583 173.188 62.0625 174.062 63.8125C174.979 65.5208 175.438 67.7083 175.438 70.375C175.438 72.9167 175.062 74.8958 174.312 76.3125C173.188 78.3958 171.792 79.4375 170.125 79.4375H169.438L167.438 79.375L165.438 79.25C165.396 79.375 165.312 80.4583 165.188 82.5C165.104 84.5417 165 87.1042 164.875 90.1875C164.792 93.2292 164.708 96.3125 164.625 99.4375C164.625 105.104 164.833 109.854 165.25 113.688C165.708 117.479 166.188 120.167 166.688 121.75C167.604 124.833 168.604 127.604 169.688 130.062C170.771 132.521 171.312 134.188 171.312 135.062C171.312 136.854 169.958 138.604 167.25 140.312C164.542 142.062 161.583 142.938 158.375 142.938ZM203.875 136.312C200.75 135.896 198 134.438 195.625 131.938C193.292 129.438 192.021 126.896 191.812 124.312C191.812 122.854 192.271 121.833 193.188 121.25C193.562 121 194.875 120.5 197.125 119.75L197.25 119.688C197.5 119.604 197.625 119.542 197.625 119.5C197.167 117.083 196.833 114.854 196.625 112.812C196.417 110.771 196.271 107.854 196.188 104.062C196.188 101.229 196.125 99.1667 196 97.875L195.938 95.4375C195.938 94.3958 195.875 93.1458 195.75 91.6875C195.625 90.3958 195.542 89.0417 195.5 87.625C195.417 86.75 195.354 86.1875 195.312 85.9375C195.312 85.6875 195.271 85.5625 195.188 85.5625C195.146 85.5625 194.979 85.625 194.688 85.75C194.438 85.8333 194.062 85.9583 193.562 86.125C193.062 86.25 192.604 86.3125 192.188 86.3125C190.312 86.3125 188.625 85.1042 187.125 82.6875C185.625 80.2708 184.875 77.8542 184.875 75.4375C184.875 74.2708 185.062 73.25 185.438 72.375C185.854 71.4583 186.458 70.8542 187.25 70.5625L192.188 68.75C192.688 68.5833 193.104 68.4375 193.438 68.3125C193.812 68.1875 194 68.0625 194 67.9375C194 66.7708 193.854 64.6042 193.562 61.4375L192.625 48.75C192.458 47.4167 192.271 45.3542 192.062 42.5625L191.75 37.9375C191.5 35.6875 191.312 32.1458 191.188 27.3125L191.125 24.6875C191.125 23.8542 191.062 23.3333 190.938 23.125C190.146 21.0833 189.75 19.125 189.75 17.25C189.75 15.7917 189.979 14.5 190.438 13.375C190.896 12.25 191.562 11.4583 192.438 11C192.604 10.9167 192.729 10.8542 192.812 10.8125C192.896 10.7292 192.979 10.6667 193.062 10.625C193.146 10.5833 193.417 10.5625 193.875 10.5625C196.125 10.5208 201.729 9.95833 210.688 8.875C220.188 7.75 228.75 6.89583 236.375 6.3125C239.792 6.02083 242.833 5.875 245.5 5.875C247.708 5.875 249.188 5.9375 249.938 6.0625C251.979 6.47917 253.542 7.125 254.625 8C255.833 9.08333 256.771 10.5625 257.438 12.4375C258.146 14.2708 258.5 16.1667 258.5 18.125C258.5 19.875 258.188 21.4583 257.562 22.875C256.938 24.2917 256.125 25.2292 255.125 25.6875C254.792 25.8542 254.271 25.9375 253.562 25.9375L247.375 25.6875C242.375 25.8125 238.375 25.9375 235.375 26.0625C230.833 26.2292 226.25 26.4792 221.625 26.8125C215.667 27.1875 212.146 27.4583 211.062 27.625L211 48.125C211 50.25 211 52.5 211 54.875C211.042 57.2083 211.083 59.1875 211.125 60.8125C211.208 62.4375 211.271 63.25 211.312 63.25L223 60.4375L230.125 58.9375L232.688 58.5C233.979 58.2917 235.521 58 237.312 57.625C240.479 56.9167 243.167 56.5625 245.375 56.5625C246.875 56.5625 248.354 56.7292 249.812 57.0625C251.271 57.3958 252.5 57.8125 253.5 58.3125C254.5 58.7708 255.271 59.6458 255.812 60.9375C256.396 62.1875 256.688 63.6458 256.688 65.3125C256.688 67.6875 256.208 69.8542 255.25 71.8125C253.833 74.7708 252.083 76.25 250 76.25C249.333 76.25 248.583 76.125 247.75 75.875C246 75.3333 244.271 74.9375 242.562 74.6875C240.896 74.4375 238.542 74.2708 235.5 74.1875C234.542 74.1875 233.583 74.2708 232.625 74.4375C231.875 74.5625 231.25 74.625 230.75 74.625C228.792 74.875 225.333 75.6667 220.375 77C215.458 78.2917 212.771 79.1042 212.312 79.4375C212.271 79.4792 212.25 79.6042 212.25 79.8125C212.25 81.1042 212.354 82.6458 212.562 84.4375L213 88.4375C213.333 91.4375 213.646 93.9167 213.938 95.875C214.521 99.75 215.208 103.396 216 106.812C216.542 109.188 217.021 111.479 217.438 113.688H217.562C217.938 113.688 219.167 113.396 221.25 112.812C225.5 111.604 231.792 110.208 240.125 108.625L243.438 108.062C244.562 107.812 246.938 107.417 250.562 106.875C254.188 106.292 258 106 262 106H263.688C265.729 106 267.354 106.146 268.562 106.438C272.062 107.271 274.104 110.062 274.688 114.812C274.729 115.229 274.75 115.75 274.75 116.375C274.75 119.208 274.312 121.521 273.438 123.312C272.604 125.104 271.562 126.312 270.312 126.938C269.896 127.146 269.375 127.25 268.75 127.25C268.042 127.25 267.5 127.146 267.125 126.938C266.792 126.729 266.417 126.417 266 126L265.5 125.562L262.25 125.25C260.792 125.125 258.188 125.062 254.438 125.062C251.979 125.062 250.083 125.083 248.75 125.125C246.792 125.208 244.688 125.438 242.438 125.812L240.75 126.062C237.5 126.396 234.312 126.979 231.188 127.812C228.729 128.479 225.167 129.562 220.5 131.062L214.938 132.938L209.375 134.75C206.292 135.792 204.458 136.312 203.875 136.312ZM294.188 139.875C292.688 139.875 291.167 139.146 289.625 137.688C288.083 136.229 286.771 134.458 285.688 132.375C284.646 130.25 284.125 128.229 284.125 126.312C284.125 124.188 284.708 122.771 285.875 122.062C286.208 121.854 287.042 121.521 288.375 121.062C290.583 120.229 291.833 119.812 292.125 119.812C292.25 119.812 292.333 119.792 292.375 119.75C292.458 119.708 292.521 119.521 292.562 119.188L292.688 116.812C293.188 111.854 293.438 105.125 293.438 96.625C293.438 89.8333 293.271 82.5 292.938 74.625C292.729 68.0833 292.542 63.6667 292.375 61.375C292.292 60.5 292.25 59.7708 292.25 59.1875L291.5 46.625C291.208 42.5833 290.833 38.0417 290.375 33C290 29.4583 289.396 23 288.562 13.625C288.396 11.5833 288.188 9.875 287.938 8.5C287.688 7.08333 287.562 5.77083 287.562 4.5625C287.646 3.1875 288.312 2.14583 289.562 1.4375C290.854 0.6875 292.562 0.3125 294.688 0.3125C297.396 0.3125 300.021 0.958333 302.562 2.25C305.146 3.5 306.708 5.08333 307.25 7C307.375 7.45833 307.562 8.70833 307.812 10.75C308.438 15.4583 308.958 20.0625 309.375 24.5625C309.542 27.1042 309.667 38.4583 309.75 58.625C309.833 79.0417 309.958 91.5208 310.125 96.0625C310.458 103.062 310.896 108.479 311.438 112.312L311.625 113.75L314.312 112.875C316.271 112.25 320.479 111.062 326.938 109.312C335.938 106.562 343.146 105.188 348.562 105.188C350.188 105.188 351.625 105.292 352.875 105.5C354.125 105.667 355.521 105.958 357.062 106.375C358.354 106.708 359.229 107.042 359.688 107.375C362.104 109.208 363.375 112.5 363.5 117.25C363.5 119.417 363.146 121.333 362.438 123C361.729 124.667 360.812 125.812 359.688 126.438C359.354 126.604 358.938 126.688 358.438 126.688C357.854 126.688 357.021 126.562 355.938 126.312C353.479 125.729 351.083 125.438 348.75 125.438C346.292 125.438 342.958 125.75 338.75 126.375C334.583 127 331.271 127.646 328.812 128.312C325.896 129.062 323.708 129.688 322.25 130.188C320.833 130.688 319.042 131.271 316.875 131.938L307.75 135.438L302.562 137.25C297.854 139 295.062 139.875 294.188 139.875ZM379.375 139.875C377.75 139.875 376.396 139.542 375.312 138.875C374.229 138.25 373.146 137.396 372.062 136.312C370.771 135.062 369.771 133.729 369.062 132.312C368.354 130.896 368 129.625 368 128.5C368 127.083 368.562 126.042 369.688 125.375C369.854 125.292 370.688 125 372.188 124.5C376.312 123.083 379.604 122.062 382.062 121.438L383.25 121.125L382.688 117.188C382.271 114.562 381.979 111.417 381.812 107.75L381.188 96.5C380.729 88.4583 380.417 82.0625 380.25 77.3125C380.083 72.5625 379.979 65.7708 379.938 56.9375C379.938 48.0625 379.938 42.3333 379.938 39.75C379.896 35.0833 379.854 31.8958 379.812 30.1875C379.812 28.4792 379.812 27.5208 379.812 27.3125C379.812 27.1042 379.792 27 379.75 27L376.5 27.875L371.75 29.1875C369.75 29.7708 368.479 30.0625 367.938 30.0625C366.479 30.0625 364.938 29.2292 363.312 27.5625C361.688 25.8958 360.542 23.7292 359.875 21.0625C359.792 20.5625 359.75 19.8125 359.75 18.8125C359.75 17.9792 359.771 17.4375 359.812 17.1875C360.188 15.3542 361.125 14.2083 362.625 13.75C365.542 12.8333 369.458 11.7708 374.375 10.5625C379.333 9.3125 383.521 8.45833 386.938 8L391.188 7.375C392.729 7.16667 396.375 6.79167 402.125 6.25C406.917 5.83333 409.771 5.60417 410.688 5.5625C411.646 5.52083 412.875 5.4375 414.375 5.3125C415.5 5.1875 416.438 5.125 417.188 5.125H417.875C418.25 5.125 418.625 5.20833 419 5.375C420.667 6.16667 421.896 7.875 422.688 10.5C422.771 10.7917 422.833 11.0833 422.875 11.375C422.958 11.6667 423 12.2708 423 13.1875C423 14.2708 422.917 15.0625 422.75 15.5625C422.625 16.0625 422.458 16.5 422.25 16.875L422.062 17.1875C421.771 17.6042 421.479 17.9375 421.188 18.1875C420.896 18.3958 420.5 18.5833 420 18.75C419.5 18.875 417.083 19.2917 412.75 20C406.708 21.0417 402.146 21.8958 399.062 22.5625C398.646 27.8125 398.229 32.2917 397.812 36C397.354 40.2917 396.979 44.5833 396.688 48.875C396.396 53.125 396.25 58.7917 396.25 65.875C396.25 70.5833 396.271 74.0417 396.312 76.25C396.396 78.4167 396.521 81.3333 396.688 85L396.812 88.5C397.229 95.7083 398.438 102.729 400.438 109.562C401.646 113.688 402.333 115.75 402.5 115.75L403.75 115.375C408.417 114.042 411.021 113.375 411.562 113.375C413.396 113.542 415 114.542 416.375 116.375C417.792 118.167 418.5 120.125 418.5 122.25C418.5 123.583 418.146 124.583 417.438 125.25C417.188 125.5 416.333 125.917 414.875 126.5C404.917 130.458 398.146 133.167 394.562 134.625C391.188 136.042 389.021 136.917 388.062 137.25L384.75 138.375C382.708 139.083 381.417 139.5 380.875 139.625C380.375 139.75 379.875 139.833 379.375 139.875ZM456.938 137.375H454.875C453.042 137.125 451.854 136.417 451.312 135.25C450.771 134.083 450.5 131.708 450.5 128.125C450.5 124.708 450.708 120.979 451.125 116.938C451.333 114.646 451.479 112 451.562 109C451.688 106.75 451.75 98.75 451.75 85L451.688 71.9375L451.812 57.0625L451.875 38.25C451.875 34.625 451.854 32.4583 451.812 31.75L451.75 25.5C449.958 25.7917 447.958 26.2083 445.75 26.75C443 27.5 441.104 27.875 440.062 27.875C438.604 27.875 437.292 27.2292 436.125 25.9375C435 24.6042 434.083 23.0625 433.375 21.3125C432.708 19.5625 432.375 18.0208 432.375 16.6875C432.375 14.8542 432.958 13.5625 434.125 12.8125C434.583 12.5208 435.458 12.25 436.75 12C437.417 11.8333 438.25 11.6458 439.25 11.4375C440.25 11.1875 441.125 10.9583 441.875 10.75C442.625 10.5417 443.958 10.2708 445.875 9.9375C447.833 9.5625 449.312 9.29167 450.312 9.125C451.521 8.91667 452.125 8.79167 452.125 8.75L452.25 7.5625C452.292 6.72917 452.375 6.0625 452.5 5.5625C452.625 5.0625 452.896 4.60417 453.312 4.1875C454.604 3.10417 456.354 2.5625 458.562 2.5625C461.646 2.5625 464.854 3.5625 468.188 5.5625C468.771 6.02083 469.167 6.25 469.375 6.25L472.812 5.8125C477.396 5.22917 482.542 4.75 488.25 4.375C491.417 4.20833 495.521 4.125 500.562 4.125C507.562 4.125 514.021 4.27083 519.938 4.5625C525.896 4.8125 529.188 5.02083 529.812 5.1875L530.5 5.625C530.833 5.91667 531.146 6.41667 531.438 7.125C531.771 7.83333 531.938 8.29167 531.938 8.5V8.625L532 8.6875C532.042 8.6875 532.083 8.83333 532.125 9.125C532.167 9.375 532.188 9.83333 532.188 10.5C532.104 12.5 531.917 13.7708 531.625 14.3125C531.542 14.6458 531.354 15.0625 531.062 15.5625C530.812 16.0625 530.542 16.4792 530.25 16.8125C529.958 17.1042 529.583 17.3542 529.125 17.5625L528.875 17.6875C516.917 17.8125 507.542 17.9792 500.75 18.1875C498.333 18.3125 494.229 18.6458 488.438 19.1875C484.354 19.5625 482.042 19.75 481.5 19.75L479.812 19.9375C474.188 20.6458 471.375 21.1042 471.375 21.3125C471.042 24.3125 470.875 26.0625 470.875 26.5625C470.667 27.9792 470.458 29.5833 470.25 31.375L469.875 34.5L468.875 44.8125C468.542 49.1042 468.229 54.7708 467.938 61.8125L468 62.3125L471.188 61.9375C471.896 61.8542 472.729 61.7083 473.688 61.5L483.75 59.5C491.25 57.8333 497.917 56.9583 503.75 56.875C504.833 56.875 505.583 56.9583 506 57.125C506.458 57.25 506.917 57.5833 507.375 58.125C508.125 58.75 508.75 59.6875 509.25 60.9375C509.75 62.1875 510 64.0417 510 66.5C509.958 70.625 508.917 73.625 506.875 75.5C506.5 75.875 506.104 76.1667 505.688 76.375C505.021 76.6667 502.812 76.9583 499.062 77.25C497.562 77.25 495.5 77.4167 492.875 77.75L487.688 78.25C484.188 78.4583 480.021 79.2708 475.188 80.6875C474.104 80.9375 472.771 81.2917 471.188 81.75C468.938 82.4167 467.729 82.7708 467.562 82.8125C467.396 82.8125 467.25 82.8333 467.125 82.875C467.042 85.625 467 88.4792 467 91.4375V98.5C467.042 100.917 467.146 103.688 467.312 106.812C467.354 106.896 467.438 107.604 467.562 108.938C467.688 110.729 467.792 111.812 467.875 112.188C468.125 113.396 468.396 115.146 468.688 117.438C469.521 123.396 469.938 127.104 469.938 128.562C469.896 129.354 469.771 129.958 469.562 130.375C468.521 132.417 466.812 134.083 464.438 135.375C462.104 136.625 459.604 137.292 456.938 137.375ZM556.25 136.312C553.125 135.896 550.375 134.438 548 131.938C545.667 129.438 544.396 126.896 544.188 124.312C544.188 122.854 544.646 121.833 545.562 121.25C545.938 121 547.25 120.5 549.5 119.75L549.625 119.688C549.875 119.604 550 119.542 550 119.5C549.542 117.083 549.208 114.854 549 112.812C548.792 110.771 548.646 107.854 548.562 104.062C548.562 101.229 548.5 99.1667 548.375 97.875L548.312 95.4375C548.312 94.3958 548.25 93.1458 548.125 91.6875C548 90.3958 547.917 89.0417 547.875 87.625C547.792 86.75 547.729 86.1875 547.688 85.9375C547.688 85.6875 547.646 85.5625 547.562 85.5625C547.521 85.5625 547.354 85.625 547.062 85.75C546.812 85.8333 546.438 85.9583 545.938 86.125C545.438 86.25 544.979 86.3125 544.562 86.3125C542.688 86.3125 541 85.1042 539.5 82.6875C538 80.2708 537.25 77.8542 537.25 75.4375C537.25 74.2708 537.438 73.25 537.812 72.375C538.229 71.4583 538.833 70.8542 539.625 70.5625L544.562 68.75C545.062 68.5833 545.479 68.4375 545.812 68.3125C546.188 68.1875 546.375 68.0625 546.375 67.9375C546.375 66.7708 546.229 64.6042 545.938 61.4375L545 48.75C544.833 47.4167 544.646 45.3542 544.438 42.5625L544.125 37.9375C543.875 35.6875 543.688 32.1458 543.562 27.3125L543.5 24.6875C543.5 23.8542 543.438 23.3333 543.312 23.125C542.521 21.0833 542.125 19.125 542.125 17.25C542.125 15.7917 542.354 14.5 542.812 13.375C543.271 12.25 543.938 11.4583 544.812 11C544.979 10.9167 545.104 10.8542 545.188 10.8125C545.271 10.7292 545.354 10.6667 545.438 10.625C545.521 10.5833 545.792 10.5625 546.25 10.5625C548.5 10.5208 554.104 9.95833 563.062 8.875C572.562 7.75 581.125 6.89583 588.75 6.3125C592.167 6.02083 595.208 5.875 597.875 5.875C600.083 5.875 601.562 5.9375 602.312 6.0625C604.354 6.47917 605.917 7.125 607 8C608.208 9.08333 609.146 10.5625 609.812 12.4375C610.521 14.2708 610.875 16.1667 610.875 18.125C610.875 19.875 610.562 21.4583 609.938 22.875C609.312 24.2917 608.5 25.2292 607.5 25.6875C607.167 25.8542 606.646 25.9375 605.938 25.9375L599.75 25.6875C594.75 25.8125 590.75 25.9375 587.75 26.0625C583.208 26.2292 578.625 26.4792 574 26.8125C568.042 27.1875 564.521 27.4583 563.438 27.625L563.375 48.125C563.375 50.25 563.375 52.5 563.375 54.875C563.417 57.2083 563.458 59.1875 563.5 60.8125C563.583 62.4375 563.646 63.25 563.688 63.25L575.375 60.4375L582.5 58.9375L585.062 58.5C586.354 58.2917 587.896 58 589.688 57.625C592.854 56.9167 595.542 56.5625 597.75 56.5625C599.25 56.5625 600.729 56.7292 602.188 57.0625C603.646 57.3958 604.875 57.8125 605.875 58.3125C606.875 58.7708 607.646 59.6458 608.188 60.9375C608.771 62.1875 609.062 63.6458 609.062 65.3125C609.062 67.6875 608.583 69.8542 607.625 71.8125C606.208 74.7708 604.458 76.25 602.375 76.25C601.708 76.25 600.958 76.125 600.125 75.875C598.375 75.3333 596.646 74.9375 594.938 74.6875C593.271 74.4375 590.917 74.2708 587.875 74.1875C586.917 74.1875 585.958 74.2708 585 74.4375C584.25 74.5625 583.625 74.625 583.125 74.625C581.167 74.875 577.708 75.6667 572.75 77C567.833 78.2917 565.146 79.1042 564.688 79.4375C564.646 79.4792 564.625 79.6042 564.625 79.8125C564.625 81.1042 564.729 82.6458 564.938 84.4375L565.375 88.4375C565.708 91.4375 566.021 93.9167 566.312 95.875C566.896 99.75 567.583 103.396 568.375 106.812C568.917 109.188 569.396 111.479 569.812 113.688H569.938C570.312 113.688 571.542 113.396 573.625 112.812C577.875 111.604 584.167 110.208 592.5 108.625L595.812 108.062C596.938 107.812 599.312 107.417 602.938 106.875C606.562 106.292 610.375 106 614.375 106H616.062C618.104 106 619.729 106.146 620.938 106.438C624.438 107.271 626.479 110.062 627.062 114.812C627.104 115.229 627.125 115.75 627.125 116.375C627.125 119.208 626.688 121.521 625.812 123.312C624.979 125.104 623.938 126.312 622.688 126.938C622.271 127.146 621.75 127.25 621.125 127.25C620.417 127.25 619.875 127.146 619.5 126.938C619.167 126.729 618.792 126.417 618.375 126L617.875 125.562L614.625 125.25C613.167 125.125 610.562 125.062 606.812 125.062C604.354 125.062 602.458 125.083 601.125 125.125C599.167 125.208 597.062 125.438 594.812 125.812L593.125 126.062C589.875 126.396 586.688 126.979 583.562 127.812C581.104 128.479 577.542 129.562 572.875 131.062L567.312 132.938L561.75 134.75C558.667 135.792 556.833 136.312 556.25 136.312ZM652.719 136.594C650.927 136.594 649.375 136.312 648.062 135.75C644.188 134.083 641.219 130.417 639.156 124.75C637.385 119.875 636.5 114.156 636.5 107.594C636.5 100.948 637.458 94.6354 639.375 88.6562C640.792 84.2188 642.729 80.4688 645.188 77.4062C645.396 77.1146 645.552 76.8229 645.656 76.5312C645.76 76.2396 645.979 75.9271 646.312 75.5938C648.792 73.1979 651.573 72 654.656 72C657.198 72 659.833 72.7917 662.562 74.375C666.167 76.6042 668.979 80.0104 671 84.5938C673.021 89.1771 674.177 94.3438 674.469 100.094C674.49 100.594 674.5 101.25 674.5 102.062C674.5 103.604 674.479 104.75 674.438 105.5C673.917 113.125 672.073 119.854 668.906 125.688C665.01 132.958 659.615 136.594 652.719 136.594ZM655.094 130.375C655.302 130.375 655.677 130.062 656.219 129.438C656.781 128.812 657.365 128.042 657.969 127.125C659.99 124.146 661.573 119.865 662.719 114.281C663.26 111.469 663.615 109.062 663.781 107.062C663.948 105.062 664.031 102.969 664.031 100.781C664.031 96.3229 663.667 92.375 662.938 88.9375C662.208 85.4792 661.208 82.6979 659.938 80.5938C659.688 80.1771 659.427 79.8021 659.156 79.4688C658.906 79.1354 658.75 78.9688 658.688 78.9688C658.604 78.9688 658.396 79.0312 658.062 79.1562C657.208 79.5312 656.354 80.1354 655.5 80.9688C655.062 81.3854 654.688 81.6875 654.375 81.875L654 82C653.958 82 653.833 82.1458 653.625 82.4375C653.125 83.1458 652.635 83.9271 652.156 84.7812C649.344 89.8854 647.708 96.3229 647.25 104.094C647.229 104.906 647.219 105.896 647.219 107.062C647.219 112.812 647.969 117.875 649.469 122.25C650.656 125.708 652.167 128.188 654 129.688C654.583 130.146 654.948 130.375 655.094 130.375ZM687.719 137.188H686.688C685.771 137.062 685.177 136.708 684.906 136.125C684.635 135.542 684.5 134.354 684.5 132.562C684.5 130.854 684.604 128.99 684.812 126.969C684.917 125.823 684.99 124.5 685.031 123C685.094 121.875 685.125 117.875 685.125 111L685.094 104.469L685.156 97.0312L685.188 87.625C685.188 85.8125 685.177 84.7292 685.156 84.375L685.125 81.25C684.229 81.3958 683.229 81.6042 682.125 81.875C680.75 82.25 679.802 82.4375 679.281 82.4375C678.552 82.4375 677.896 82.1146 677.312 81.4688C676.75 80.8021 676.292 80.0312 675.938 79.1562C675.604 78.2812 675.438 77.5104 675.438 76.8438C675.438 75.9271 675.729 75.2812 676.312 74.9062C676.542 74.7604 676.979 74.625 677.625 74.5C677.958 74.4167 678.375 74.3229 678.875 74.2188C679.375 74.0938 679.812 73.9792 680.188 73.875C680.562 73.7708 681.229 73.6354 682.188 73.4688C683.167 73.2812 683.906 73.1458 684.406 73.0625C685.01 72.9583 685.312 72.8958 685.312 72.875L685.375 72.2812C685.396 71.8646 685.438 71.5312 685.5 71.2812C685.562 71.0312 685.698 70.8021 685.906 70.5938C686.552 70.0521 687.427 69.7812 688.531 69.7812C690.073 69.7812 691.677 70.2812 693.344 71.2812C693.635 71.5104 693.833 71.625 693.938 71.625L695.656 71.4062C697.948 71.1146 700.521 70.875 703.375 70.6875C704.958 70.6042 707.01 70.5625 709.531 70.5625C713.031 70.5625 716.26 70.6354 719.219 70.7812C722.198 70.9062 723.844 71.0104 724.156 71.0938L724.5 71.3125C724.667 71.4583 724.823 71.7083 724.969 72.0625C725.135 72.4167 725.219 72.6458 725.219 72.75V72.8125L725.25 72.8438C725.271 72.8438 725.292 72.9167 725.312 73.0625C725.333 73.1875 725.344 73.4167 725.344 73.75C725.302 74.75 725.208 75.3854 725.062 75.6562C725.021 75.8229 724.927 76.0312 724.781 76.2812C724.656 76.5312 724.521 76.7396 724.375 76.9062C724.229 77.0521 724.042 77.1771 723.812 77.2812L723.688 77.3438C717.708 77.4062 713.021 77.4896 709.625 77.5938C708.417 77.6562 706.365 77.8229 703.469 78.0938C701.427 78.2812 700.271 78.375 700 78.375L699.156 78.4688C696.344 78.8229 694.938 79.0521 694.938 79.1562C694.771 80.6562 694.688 81.5312 694.688 81.7812C694.583 82.4896 694.479 83.2917 694.375 84.1875L694.188 85.75L693.688 90.9062C693.521 93.0521 693.365 95.8854 693.219 99.4062L693.25 99.6562L694.844 99.4688C695.198 99.4271 695.615 99.3542 696.094 99.25L701.125 98.25C704.875 97.4167 708.208 96.9792 711.125 96.9375C711.667 96.9375 712.042 96.9792 712.25 97.0625C712.479 97.125 712.708 97.2917 712.938 97.5625C713.312 97.875 713.625 98.3438 713.875 98.9688C714.125 99.5938 714.25 100.521 714.25 101.75C714.229 103.812 713.708 105.312 712.688 106.25C712.5 106.438 712.302 106.583 712.094 106.688C711.76 106.833 710.656 106.979 708.781 107.125C708.031 107.125 707 107.208 705.688 107.375L703.094 107.625C701.344 107.729 699.26 108.135 696.844 108.844C696.302 108.969 695.635 109.146 694.844 109.375C693.719 109.708 693.115 109.885 693.031 109.906C692.948 109.906 692.875 109.917 692.812 109.938C692.771 111.312 692.75 112.74 692.75 114.219V117.75C692.771 118.958 692.823 120.344 692.906 121.906C692.927 121.948 692.969 122.302 693.031 122.969C693.094 123.865 693.146 124.406 693.188 124.594C693.312 125.198 693.448 126.073 693.594 127.219C694.01 130.198 694.219 132.052 694.219 132.781C694.198 133.177 694.135 133.479 694.031 133.688C693.51 134.708 692.656 135.542 691.469 136.188C690.302 136.812 689.052 137.146 687.719 137.188ZM755.125 141.625C752.25 141.625 750.146 140.854 748.812 139.312C747.688 137.688 747.125 135.188 747.125 131.812C747.125 129.312 747.208 127.333 747.375 125.875C747.583 123.792 747.75 121.729 747.875 119.688C748.042 116.312 748.208 109.354 748.375 98.8125L747.688 98.9375C746.604 99.1042 744.896 99.1875 742.562 99.1875C741.812 99.1875 741.125 99.1667 740.5 99.125C739.917 99.0833 739.521 99.0417 739.312 99C737.229 98.4583 735.458 96.9792 734 94.5625C732.542 92.1458 731.708 89.25 731.5 85.875C731.5 83.5417 732.083 81.75 733.25 80.5C733.542 80.25 733.854 80.0417 734.188 79.875C734.771 79.625 736.396 79.4167 739.062 79.25C743.229 78.9583 746.458 78.6667 748.75 78.375C748.917 77.2917 749.042 75.1667 749.125 72C749.208 68.4167 749.438 63.1042 749.812 56.0625C749.896 53.4375 750 51.3958 750.125 49.9375C750.417 43.3542 750.646 38.7708 750.812 36.1875L751.375 26.9375L742.875 29.3125C740.708 29.8958 739.354 30.1875 738.812 30.1875C736.771 30.1875 734.792 28.7708 732.875 25.9375C731 23.1042 730.062 20.2083 730.062 17.25C730.062 14.9583 730.771 13.5 732.188 12.875C733.146 12.4583 734.979 11.9167 737.688 11.25C742.771 10 746.479 9.1875 748.812 8.8125L752.812 8.1875L753 7.25C753.208 5.375 754.521 4.4375 756.938 4.4375C759.021 4.4375 761.25 5.1875 763.625 6.6875L764.062 6.9375C766.312 6.85417 768.042 6.75 769.25 6.625C771.542 6.5 773.979 6.41667 776.562 6.375H779.875C781.042 6.41667 782.521 6.52083 784.312 6.6875C804.562 8.35417 817.708 15.0833 823.75 26.875C825.875 31.0833 826.938 36 826.938 41.625C826.938 46.4583 825.938 50.9375 823.938 55.0625C820.188 62.8125 813.188 69.9375 802.938 76.4375C799.938 78.2708 797.479 79.6875 795.562 80.6875C787.521 84.7708 781.646 87.5 777.938 88.875C776.729 89.3333 775.771 89.7292 775.062 90.0625C773.646 90.6042 772.562 91 771.812 91.25C770.604 91.7083 769.354 92.2083 768.062 92.75C766.979 93.1667 765.771 93.5833 764.438 94L763 94.5L763.125 103.25C763.167 105.417 763.229 107 763.312 108L763.812 113.75C764.188 118.083 765.417 123.812 767.5 130.938C767.917 132.312 768.125 133.188 768.125 133.562C768.125 134.688 767.646 135.792 766.688 136.875C765.771 137.958 764.542 138.896 763 139.688C760.333 140.979 757.708 141.625 755.125 141.625ZM763.312 75.75L764.5 75.4375C765.125 75.3125 765.854 75.125 766.688 74.875C767.562 74.625 768.771 74.2292 770.312 73.6875C772.062 73.1042 773.375 72.6458 774.25 72.3125C775.167 71.9792 775.833 71.7292 776.25 71.5625C776.667 71.3958 777.042 71.2292 777.375 71.0625C777.75 70.8542 778.333 70.5833 779.125 70.25C780.417 69.7083 782.146 68.8958 784.312 67.8125C786.521 66.7292 788.25 65.8333 789.5 65.125C794.792 62.0833 798.979 59.3125 802.062 56.8125C805.146 54.2708 807.625 51.8542 809.5 49.5625C813.625 44.4375 815.688 40.5833 815.688 38C815.688 37.5417 815.646 37.2083 815.562 37C814.479 34.4167 812 31.8125 808.125 29.1875C805.875 27.6875 803.312 26.4375 800.438 25.4375C796.979 24.2708 793.958 23.5 791.375 23.125C787.375 22.5 783.583 22.1875 780 22.1875L776.125 22.25C774.375 22.2917 773.208 22.3542 772.625 22.4375C768.792 22.9792 766.833 23.2917 766.75 23.375C766.542 24.0417 766 30.4375 765.125 42.5625L764.688 47.75L763.938 59.5L763.5 69.75C763.375 71.5 763.312 73.5 763.312 75.75ZM878.5 138.938C877.542 138.938 876.75 138.896 876.125 138.812C872.333 138.146 869.396 136.792 867.312 134.75C865.229 132.708 864.188 127.833 864.188 120.125C864.229 116.333 864.354 113.021 864.562 110.188C864.688 108.854 864.75 107.333 864.75 105.625C864.792 103.917 864.896 101.583 865.062 98.625C865.021 98.4583 865 98.3333 865 98.25C865 98.1667 864.979 98.125 864.938 98.125C864.396 98.125 862.229 98.9167 858.438 100.5C854.646 102.042 850.542 103.854 846.125 105.938C846.042 110.979 846 114.688 846 117.062C846 122.312 846.083 125.875 846.25 127.75C846.25 128.458 846.229 128.917 846.188 129.125C846.146 129.292 846.083 129.458 846 129.625C845.333 130.875 844.104 131.833 842.312 132.5C840.521 133.125 838.646 133.438 836.688 133.438C833.854 133.438 831.438 132.917 829.438 131.875C827.479 130.833 826.375 129.542 826.125 128L825.938 125.625C825.771 122.292 825.688 120 825.688 118.75C825.688 117.958 825.667 117.562 825.625 117.562L825.125 117.875C824.542 118.292 824.042 118.583 823.625 118.75C823.25 118.917 822.688 119 821.938 119C821.521 119 821.146 118.979 820.812 118.938C817.938 118.021 815.375 115.958 813.125 112.75C811.5 110.083 810.688 107.771 810.688 105.812C810.771 104.354 811.167 103.312 811.875 102.688C812.417 102.188 815 100.521 819.625 97.6875L825.062 94.4375C826.312 93.7708 826.979 93.3542 827.062 93.1875C827.146 92.9792 827.479 90.9167 828.062 87C828.688 82.875 829.292 79.2708 829.875 76.1875C830.792 71.5625 831.833 66.625 833 61.375C834.667 53.9167 835.958 48.6458 836.875 45.5625L838.5 39.5L841.688 29.25C843.771 22.9167 845.688 17.8125 847.438 13.9375C849.688 9.10417 852.479 6.33333 855.812 5.625C856.479 5.5 857.333 5.4375 858.375 5.4375C862.333 5.4375 866.104 6.77083 869.688 9.4375C873.271 12.0625 875.917 15.8125 877.625 20.6875C878.542 23.5625 879.271 26.5417 879.812 29.625C880.396 33.9167 880.792 38.6042 881 43.6875L881.375 53.5625L881.688 66.9375L881.75 71.6875L882 71.625C883.708 71.25 886.75 71.0625 891.125 71.0625C892.167 71.0625 892.854 71.0833 893.188 71.125C894.354 71.375 895.542 72.2083 896.75 73.625C897.958 75 898.854 76.6667 899.438 78.625C900.021 80.5417 900.312 82.3542 900.312 84.0625C900.188 88.3125 898.875 90.6667 896.375 91.125C887.667 92.125 883.125 92.7708 882.75 93.0625C882.708 93.1042 882.688 93.2917 882.688 93.625L883.25 103.5C883.583 107.583 884.104 112.312 884.812 117.688L885.312 121.5C886.188 129.083 886.625 133.375 886.625 134.375C886.625 136.542 885.042 138 881.875 138.75C881.167 138.875 880.042 138.938 878.5 138.938ZM847.312 82.6875C855.104 79.3958 860.958 77.0833 864.875 75.75L864.75 70.375C864.583 64.0833 864.167 57.25 863.5 49.875C863.042 44.5417 862.354 38.8958 861.438 32.9375L861.062 30.6875C860.938 29.6458 860.854 29.125 860.812 29.125C860.729 29.125 860.417 29.7292 859.875 30.9375C859.333 32.1458 858.729 33.6042 858.062 35.3125C857.396 36.9792 856.812 38.5833 856.312 40.125C851.521 55.7917 848.625 68.9583 847.625 79.625L847.312 82.6875ZM932.75 139.75C928.625 139.75 925.375 138.667 923 136.5C921.792 135.292 920.979 133.208 920.562 130.25C920.354 128.5 920.25 125.958 920.25 122.625C920.25 118.708 920.375 114.958 920.625 111.375L920.938 104.125C921.021 99.9167 921.062 87.2083 921.062 66C921.062 61.375 921.062 57.4792 921.062 54.3125C921.062 51.1458 921.042 49.5208 921 49.4375C921 49.3542 920.979 49.3125 920.938 49.3125C920.812 49.3125 920.375 49.5625 919.625 50.0625C919.125 50.3542 918.542 50.6875 917.875 51.0625C917.208 51.4375 915.458 52.5625 912.625 54.4375L909.125 56.6875C908.417 57.0625 907.667 57.25 906.875 57.25C905 57.0833 903.083 56.3958 901.125 55.1875C899.167 53.9792 897.5 52.4583 896.125 50.625C894.75 48.75 894.062 46.8542 894.062 44.9375C894.062 44.3125 894.146 43.75 894.312 43.25C894.521 42.75 894.958 42.2917 895.625 41.875C896.333 41.4167 898.271 40.3958 901.438 38.8125L913.188 32.8125L918 30.4375C920.333 29.2292 921.5 28.5833 921.5 28.5L921.938 22.0625C922.021 21.7292 922.062 21.3333 922.062 20.875C922.396 17.2917 922.75 15 923.125 14C924 12.4583 925.688 11.6875 928.188 11.6875C930.396 11.6875 932.708 12.2708 935.125 13.4375C938.125 14.8958 940.083 16.7292 941 18.9375C941.083 19.1458 941.146 19.2917 941.188 19.375C941.229 19.4167 941.292 19.4375 941.375 19.4375L943.25 18.625C944.75 17.9167 946.312 17.25 947.938 16.625C954.104 14.2917 958.354 12.8542 960.688 12.3125C962.521 11.8542 964.417 11.6042 966.375 11.5625C969.667 11.5625 972.5 12.5 974.875 14.375C978.917 17.7917 981.438 22.5 982.438 28.5C982.521 29.2083 982.562 30.0417 982.562 31C982.562 32.125 982.5 33.125 982.375 34C981.75 39 979.021 44.4583 974.188 50.375C970.604 54.8333 966.375 59.0625 961.5 63.0625L968.875 62.9375C975.958 62.9792 981.604 63.25 985.812 63.75C990.021 64.2083 993.812 65.3125 997.188 67.0625C1001.06 69.1042 1004 72 1006 75.75C1008 79.5 1009 83.4792 1009 87.6875C1009 93.9375 1006.58 99.4375 1001.75 104.188C996.958 108.938 989.604 113.333 979.688 117.375C970.812 121.083 958.604 125.521 943.062 130.688C943.062 130.854 943.062 131.042 943.062 131.25C943.104 131.458 943.125 131.729 943.125 132.062C943.167 132.354 943.188 132.875 943.188 133.625C943.188 134.333 943.146 134.792 943.062 135C943.021 135.208 942.958 135.396 942.875 135.562C941.167 138.354 937.792 139.75 932.75 139.75ZM940.625 52.125C942.958 50.5417 946.229 47.9792 950.438 44.4375C955.604 40.0625 959.729 36 962.812 32.25C963.896 31 964.521 30.2292 964.688 29.9375L964.562 29.875C964.062 29.875 962.208 30.25 959 31C955.833 31.75 951.625 33.25 946.375 35.5C942.75 37.0833 940.938 37.9583 940.938 38.125C940.896 41.2083 940.854 43.75 940.812 45.75C940.812 47.75 940.75 49.875 940.625 52.125ZM941.625 115.125C941.708 115.042 942.875 114.521 945.125 113.562C955.292 108.979 962.896 105.375 967.938 102.75C972.979 100.083 977.333 97.5417 981 95.125C985.25 92.2917 989.062 89.2708 992.438 86.0625L993.438 85C994.021 84.4167 994.312 84.1042 994.312 84.0625C994.312 83.9792 994 83.7917 993.375 83.5C991.917 82.8333 990.25 82.2083 988.375 81.625C986.792 81.125 984.562 80.6667 981.688 80.25C980.729 80.125 979.646 80.0625 978.438 80.0625L972.812 80.125C971.729 80.125 970.333 80.2083 968.625 80.375C965.125 80.75 962.479 81.0833 960.688 81.375C959.312 81.625 957.542 81.9167 955.375 82.25C951.417 82.7917 946.958 83.5417 942 84.5L940.125 84.8125L940.062 86.375C940.062 88.5833 940.104 91.6458 940.188 95.5625C940.271 99.4375 940.333 101.458 940.375 101.625C940.458 101.75 940.562 102.771 940.688 104.688C940.812 107.021 941.083 110.479 941.5 115.062C941.5 115.104 941.542 115.125 941.625 115.125ZM1019.12 139.875C1017.62 139.875 1016.1 139.146 1014.56 137.688C1013.02 136.229 1011.71 134.458 1010.62 132.375C1009.58 130.25 1009.06 128.229 1009.06 126.312C1009.06 124.188 1009.65 122.771 1010.81 122.062C1011.15 121.854 1011.98 121.521 1013.31 121.062C1015.52 120.229 1016.77 119.812 1017.06 119.812C1017.19 119.812 1017.27 119.792 1017.31 119.75C1017.4 119.708 1017.46 119.521 1017.5 119.188L1017.62 116.812C1018.12 111.854 1018.38 105.125 1018.38 96.625C1018.38 89.8333 1018.21 82.5 1017.88 74.625C1017.67 68.0833 1017.48 63.6667 1017.31 61.375C1017.23 60.5 1017.19 59.7708 1017.19 59.1875L1016.44 46.625C1016.15 42.5833 1015.77 38.0417 1015.31 33C1014.94 29.4583 1014.33 23 1013.5 13.625C1013.33 11.5833 1013.12 9.875 1012.88 8.5C1012.62 7.08333 1012.5 5.77083 1012.5 4.5625C1012.58 3.1875 1013.25 2.14583 1014.5 1.4375C1015.79 0.6875 1017.5 0.3125 1019.62 0.3125C1022.33 0.3125 1024.96 0.958333 1027.5 2.25C1030.08 3.5 1031.65 5.08333 1032.19 7C1032.31 7.45833 1032.5 8.70833 1032.75 10.75C1033.38 15.4583 1033.9 20.0625 1034.31 24.5625C1034.48 27.1042 1034.6 38.4583 1034.69 58.625C1034.77 79.0417 1034.9 91.5208 1035.06 96.0625C1035.4 103.062 1035.83 108.479 1036.38 112.312L1036.56 113.75L1039.25 112.875C1041.21 112.25 1045.42 111.062 1051.88 109.312C1060.88 106.562 1068.08 105.188 1073.5 105.188C1075.12 105.188 1076.56 105.292 1077.81 105.5C1079.06 105.667 1080.46 105.958 1082 106.375C1083.29 106.708 1084.17 107.042 1084.62 107.375C1087.04 109.208 1088.31 112.5 1088.44 117.25C1088.44 119.417 1088.08 121.333 1087.38 123C1086.67 124.667 1085.75 125.812 1084.62 126.438C1084.29 126.604 1083.88 126.688 1083.38 126.688C1082.79 126.688 1081.96 126.562 1080.88 126.312C1078.42 125.729 1076.02 125.438 1073.69 125.438C1071.23 125.438 1067.9 125.75 1063.69 126.375C1059.52 127 1056.21 127.646 1053.75 128.312C1050.83 129.062 1048.65 129.688 1047.19 130.188C1045.77 130.688 1043.98 131.271 1041.81 131.938L1032.69 135.438L1027.5 137.25C1022.79 139 1020 139.875 1019.12 139.875ZM1126.5 136.188C1122.92 136.188 1119.81 135.625 1117.19 134.5C1109.44 131.167 1103.5 123.833 1099.38 112.5C1095.83 102.75 1094.06 91.3125 1094.06 78.1875C1094.06 64.8958 1095.98 52.2708 1099.81 40.3125C1102.65 31.4375 1106.52 23.9375 1111.44 17.8125C1111.85 17.2292 1112.17 16.6458 1112.38 16.0625C1112.58 15.4792 1113.02 14.8542 1113.69 14.1875C1118.65 9.39583 1124.21 7 1130.38 7C1135.46 7 1140.73 8.58333 1146.19 11.75C1153.4 16.2083 1159.02 23.0208 1163.06 32.1875C1167.1 41.3542 1169.42 51.6875 1170 63.1875C1170.04 64.1875 1170.06 65.5 1170.06 67.125C1170.06 70.2083 1170.02 72.5 1169.94 74C1168.9 89.25 1165.21 102.708 1158.88 114.375C1151.08 128.917 1140.29 136.188 1126.5 136.188ZM1131.25 123.75C1131.67 123.75 1132.42 123.125 1133.5 121.875C1134.62 120.625 1135.79 119.083 1137 117.25C1141.04 111.292 1144.21 102.729 1146.5 91.5625C1147.58 85.9375 1148.29 81.125 1148.62 77.125C1148.96 73.125 1149.12 68.9375 1149.12 64.5625C1149.12 55.6458 1148.4 47.75 1146.94 40.875C1145.48 33.9583 1143.48 28.3958 1140.94 24.1875C1140.44 23.3542 1139.92 22.6042 1139.38 21.9375C1138.88 21.2708 1138.56 20.9375 1138.44 20.9375C1138.27 20.9375 1137.85 21.0625 1137.19 21.3125C1135.48 22.0625 1133.77 23.2708 1132.06 24.9375C1131.19 25.7708 1130.44 26.375 1129.81 26.75L1129.06 27C1128.98 27 1128.73 27.2917 1128.31 27.875C1127.31 29.2917 1126.33 30.8542 1125.38 32.5625C1119.75 42.7708 1116.48 55.6458 1115.56 71.1875C1115.52 72.8125 1115.5 74.7917 1115.5 77.125C1115.5 88.625 1117 98.75 1120 107.5C1122.38 114.417 1125.4 119.375 1129.06 122.375C1130.23 123.292 1130.96 123.75 1131.25 123.75Z" fill="black"/>
</svg>
